HIERARCHY
ROOT pelvis
{
  OFFSET 0 100 0
  CHANNELS 6 Xposition Yposition Zposition Zrotation Xrotation Yrotation
  JOINT pelvis_right_femur
  {
    OFFSET -10.78128 -3.44521 -0.5502486
    CHANNELS 3 Zrotation Xrotation Yrotation
    JOINT right_femur_tibia
    {
      OFFSET -0.8047443 -44.0398 -0.1307829
      CHANNELS 3 Zrotation Xrotation Yrotation
      JOINT right_tibia_foot
      {
        OFFSET 3.006224 -47.83518 -5
        CHANNELS 3 Zrotation Xrotation Yrotation
        End Site
        {
          OFFSET 0 -5 15
        }
      }
    }
  }
  JOINT pelvis_left_femur
  {
    OFFSET 10.78128 -3.44521 -0.5502486
    CHANNELS 3 Zrotation Xrotation Yrotation
    JOINT left_femur_tibia
    {
      OFFSET 0.8047443 -44.0398 -0.1307829
      CHANNELS 3 Zrotation Xrotation Yrotation
      JOINT left_tibia_foot
      {
        OFFSET -4.370144 -48.10324 -4.275266
        CHANNELS 3 Zrotation Xrotation Yrotation
        End Site
        {
          OFFSET 0 -5 15
        }
      }
    }
  }
  JOINT pelvis_spine1
  {
    OFFSET 0 6.468898 -3.129235
    CHANNELS 3 Zrotation Xrotation Yrotation
    JOINT spine1
    {
      OFFSET 0 23.15396 4.99043
      CHANNELS 3 Zrotation Xrotation Yrotation
      JOINT spine2
      {
        OFFSET 0 20.79997 -5.064912
        CHANNELS 3 Zrotation Xrotation Yrotation
        JOINT neck
        {
          OFFSET 0 14.38658 9.616178
          CHANNELS 3 Zrotation Xrotation Yrotation
          End Site
          {
            OFFSET 0 20 0
          }
        }
      }
      JOINT right_manubrium
      {
        OFFSET -5.722621 16.35077 3.967754
        CHANNELS 3 Zrotation Xrotation Yrotation
        JOINT right_clavicle
        {
          OFFSET -13.16364 1.694482 -4.693211
          CHANNELS 3 Zrotation Xrotation Yrotation
          JOINT right_humerus
          {
            OFFSET -28.5034 -0.3100689 -2.792744
            CHANNELS 3 Zrotation Xrotation Yrotation
            JOINT right_radius
            {
              OFFSET -25.15693 0.02248979 -1.271978
              CHANNELS 3 Zrotation Xrotation Yrotation
              End Site
              {
                OFFSET -15 0 0
              }
            }
          }
        }
      }
      JOINT left_manubrium
      {
        OFFSET 5.722621 16.35077 3.967754
        CHANNELS 3 Zrotation Xrotation Yrotation
        JOINT left_clavicle
        {
          OFFSET 13.16364 1.694482 -4.693211
          CHANNELS 3 Zrotation Xrotation Yrotation
          JOINT left_humerus
          {
            OFFSET 29.39168 -1.063119 -2.237045
            CHANNELS 3 Zrotation Xrotation Yrotation
            JOINT left_radius
            {
              OFFSET 24.59957 -0.9528479 0.9047498
              CHANNELS 3 Zrotation Xrotation Yrotation
              End Site
              {
                OFFSET 15 -0 -0
              }
            }
          }
        }
      }
    }
  }
}
MOTION
Frames: 13
Frame Time: 0.0416666666667
-308.8639 99.92039 3059.847 -0.6524098 -4.637673 -25.84513 0.02515588 20.27384 2.066811 -0 25.63585 -0 -3.031152 -8.010262 -0.6953254 -2.16214 -23.76583 -6.892483 -0 16.75161 -0 -3.713725 -7.793304 20.82627 1.852839 -3.426718 7.894997 -0.8567302 16.11944 -3.740354 2.231296 19.38536 1.814783 -1.785848 -22.35003 6.597409 -5.413032 -31.89818 10.54375 90.99351 13.94992 -7.269625 -0 0 28.94024 -25.03853 16.60078 18.1628 2.668587 -19.57199 -5.032438 -97.7924 15.24437 39.89264 0 0 -8.394467 2.372994 11.05486 15.55461
-310.8539 100.2207 3066.83 -0.2627246 -5.659582 -25.62581 -1.230624 19.04833 2.410423 -0 34.36496 -0 -3.012801 -1.713883 -1.063821 -4.085986 -20.39027 -8.281378 -0 19.12219 -0 -2.912893 -8.870165 20.68343 1.747609 -3.177696 7.57033 -0.7730063 15.95151 -3.860661 2.234457 19.8521 2.079471 -1.59238 -22.4862 6.758841 -5.446465 -31.11197 10.57961 91.52777 13.88474 -8.068433 -0 0 27.21661 -24.83452 15.86379 17.44686 2.73041 -19.80527 -5.151283 -97.36272 15.88566 38.41958 0 0 -8.874011 2.616207 11.19492 15.00546
-312.7748 101.1306 3073.635 -0.3056415 -6.637846 -24.98468 -1.705548 15.48306 2.788076 -0 43.87394 -0 -3.109211 4.02962 -1.790634 -5.266245 -15.99265 -9.088689 -0 20.86812 -0 -2.046599 -9.880728 20.29604 1.65485 -2.936809 7.17817 -0.6517744 15.83471 -4.070083 2.234609 20.33392 2.342048 -1.370985 -22.54318 6.891317 -5.417953 -30.1876 10.68502 92.16493 13.84833 -9.143848 -0 0 25.17893 -24.57812 15.18713 16.62548 2.800182 -20.23766 -5.378663 -96.67794 16.46464 36.58619 0 0 -9.756408 3.026934 11.52698 14.20842
-314.5523 102.4716 3080.015 -0.777687 -7.224146 -24.05779 -1.291073 9.534881 2.996097 -0 51.95543 -0 -3.396581 7.692173 -2.73613 -5.609 -10.90494 -9.200881 -0 21.16573 -0 -1.116661 -10.72398 19.69508 1.570936 -2.727377 6.735697 -0.4989564 15.76346 -4.357312 2.228127 20.80641 2.602188 -1.122744 -22.52476 6.992784 -5.329465 -29.16816 10.84634 92.85889 13.84614 -10.44234 -0 0 22.93359 -24.30164 14.5987 15.74627 2.895087 -20.85151 -5.693683 -95.77267 16.93332 34.45455 0 0 -11.01015 3.610979 12.03496 13.15951
-316.1533 103.9071 3085.856 -1.452359 -7.347737 -23.02373 -0.3553497 2.039808 2.899466 -0 56.08249 -0 -3.854431 8.61339 -3.696841 -5.416879 -5.612418 -8.860372 -0 19.89712 -0 -0.2492151 -11.60787 18.95951 1.494003 -2.568062 6.26572 -0.3216931 15.73252 -4.709902 2.210903 21.24567 2.85701 -0.8483605 -22.43135 7.056147 -5.185106 -28.09816 11.0515 93.56457 13.88504 -11.90722 -0 0 20.59297 -24.03138 14.11906 14.84998 3.028556 -21.62597 -6.078031 -94.68891 17.23772 32.10029 0 0 -12.60042 4.369804 12.69707 11.85674
-317.6114 105.0503 3091.21 -1.985037 -7.150555 -22.02133 0.5138856 -5.705519 2.426241 -0 54.71064 -0 -4.323471 7.255585 -4.524744 -5.119099 -0.6022493 -8.408398 -0 17.57896 -0 0.3911307 -12.86489 18.14095 1.423169 -2.468682 5.797306 -0.1292824 15.73232 -5.111801 2.179303 21.63001 3.100639 -0.5500257 -22.26375 7.071317 -4.995113 -27.02299 11.28621 94.23915 13.97359 -13.47299 -0 0 18.27713 -23.78297 13.75225 13.96789 3.20875 -22.52785 -6.510734 -93.48164 17.33249 29.6175 0 0 -14.47729 5.288555 13.47293 10.31713
-319.0139 105.5973 3096.254 -2.115002 -6.802661 -21.13089 0.8900577 -12.6028 1.562949 -0 48.07171 -0 -4.601437 4.758437 -5.16503 -5.00413 3.812806 -8.049181 -0 15.02461 -0 0.6909804 -14.65191 17.23992 1.358208 -2.427063 5.362987 0.06660524 15.74609 -5.542297 2.131374 21.94294 3.32523 -0.2330381 -22.029 7.02973 -4.779457 -25.9864 11.53098 94.84831 14.12229 -15.06569 -0 0 16.10501 -23.55808 13.4803 13.11852 3.436777 -23.507 -6.964319 -92.21913 17.1982 27.11563 0 0 -16.56565 6.326957 14.2977 8.590464
-320.465 105.4118 3101.218 -1.795341 -6.390484 -20.38302 0.7064603 -18.09471 0.413802 -0 37.92996 -0 -4.583329 2.271535 -5.623789 -5.133041 7.56413 -7.812736 -0 12.99779 -0 0.6026263 -16.80206 16.24068 1.300651 -2.429938 4.993922 0.2522051 15.75335 -5.976075 2.06805 22.17507 3.522476 0.09246413 -21.74674 6.930094 -4.568076 -25.03103 11.76166 95.37341 14.34078 -16.60583 -0 0 14.18346 -23.3477 13.2697 12.3102 3.703968 -24.49803 -7.405007 -90.97976 16.85186 24.71725 0 0 -18.75526 7.417472 15.08936 6.765755
-322.0562 104.544 3106.324 -1.174848 -5.923301 -19.77028 0.2183412 -22.08776 -0.7800807 -0 26.73347 -0 -4.320013 0.5410984 -5.942418 -5.401487 10.75278 -7.637365 -0 12.062 -0 0.1249464 -18.88846 15.15543 1.255667 -2.457684 4.714872 0.4129108 15.73983 -6.384575 1.994072 22.32422 3.684455 0.4098493 -21.45117 6.782556 -4.395554 -24.20165 11.95513 95.81416 14.62951 -18.01179 -0 0 12.59894 -23.14105 13.08805 11.5504 3.988219 -25.42767 -7.79849 -89.84611 16.34612 22.55807 0 0 -20.89561 8.472021 15.76775 4.967664
-323.8626 103.2023 3111.739 -0.5032425 -5.395268 -19.26401 -0.1651395 -24.70451 -1.714944 -0 16.81465 -0 -3.979326 -0.1728267 -6.178272 -5.640039 13.50942 -7.447385 -0 12.61301 -0 -0.7036076 -20.38084 14.04686 1.233122 -2.491148 4.54094 0.5361396 15.70839 -6.739335 1.918163 22.39369 3.802525 0.6950111 -21.18436 6.607871 -4.290894 -23.54682 12.09805 96.18249 14.96843 -19.20377 -0 0 11.41441 -22.93462 12.92308 10.85774 4.251806 -26.22581 -8.119602 -88.8963 15.75689 20.78431 0 0 -22.80505 9.395463 16.27758 3.342941
-325.9463 101.7018 3117.559 -0.04222358 -4.848794 -18.83838 -0.05814723 -26.07575 -2.133346 -0 9.897121 -0 -3.752697 0.007874366 -6.377353 -5.689059 15.86725 -7.189884 -0 14.97516 -0 -1.800324 -20.79371 13.03409 1.246443 -2.518353 4.477816 0.6147246 15.68398 -7.016585 1.851701 22.38882 3.864615 0.9176884 -20.98088 6.429901 -4.266366 -23.11666 12.19362 96.48793 15.31176 -20.1079 -0 0 10.67391 -22.73622 12.79501 10.27037 4.444825 -26.83729 -8.360728 -88.19522 15.16182 19.54408 0 0 -24.29703 10.10202 16.60465 2.03902
-328.3457 100.4009 3123.798 0.001656023 -4.411186 -18.50005 0.766656 -26.2313 -1.900857 -0 6.828803 -0 -3.755213 0.7286349 -6.560285 -5.444774 17.67118 -6.847725 -0 19.44934 -0 -3.038044 -19.81335 12.28662 1.309023 -2.538431 4.525629 0.6480217 15.70806 -7.200507 1.805497 22.31249 3.85366 1.047171 -20.85106 6.263926 -4.310375 -22.95682 12.26101 96.72056 15.59887 -20.65914 -0 0 10.4148 -22.5629 12.75655 9.845545 4.516743 -27.22995 -8.53329 -87.78953 14.61579 18.97329 0 0 -25.21349 10.53038 16.77617 1.179043
-331.0455 99.62874 3130.389 -0.4569269 -4.277292 -18.31699 2.277158 -25.0794 -1.039915 -0 7.417587 -0 -3.961975 1.516151 -6.736003 -4.895411 18.53203 -6.445908 -0 26.22207 -0 -4.263865 -17.42669 11.99239 1.429056 -2.56118 4.68365 0.6393762 15.82361 -7.283262 1.785599 22.16127 3.750362 1.06187 -20.77231 6.107499 -4.387449 -23.10093 12.32661 96.84114 15.78013 -20.80368 -0 0 10.68065 -22.43561 12.87941 9.649067 4.43322 -27.39575 -8.660416 -87.70736 14.1333 19.17799 0 0 -25.45144 10.6535 16.84371 0.8398975
